<?xml version="1.0" encoding="UTF-8"?>
<svg version="1.1" xmlns="http://www.w3.org/2000/svg" width="3464" height="3464">
<path d="M0 0 C40.92 0 81.84 0 124 0 C131.40325408 14.23702708 138.66869832 28.30183258 145.515625 42.77734375 C147.93868175 47.89628235 150.46122169 52.95929203 153.01733398 58.01269531 C155.73072868 63.40234319 158.30390975 68.85382429 160.875 74.3125 C164.52580081 82.04596208 168.3742864 89.64491013 172.39233398 97.19335938 C176.01153957 103.99294986 179.47112514 110.86224556 182.89013672 117.76416016 C185.08283368 122.18138822 187.29319242 126.58980979 189.5 131 C190.82330981 133.6463697 192.14638548 136.29285506 193.46875 138.93969727 C194.59147813 141.18354247 195.71659418 143.4261065 196.84375 145.66772461 C200.27856715 152.50636816 203.67753034 159.35989386 207 166.25390625 C207.32979858 166.93802582 207.65959717 167.62214539 207.99938965 168.32699585 C209.33498755 171.09974238 210.66942912 173.87303051 212 176.64819336 C215.94821802 184.87718194 219.98383436 193.02786783 224.38671875 201.02516174 C226.87033099 205.57904971 228.6007455 210.01515583 230 215 C230.66 215 231.32 215 232 215 C232.11939941 214.28529541 232.23879883 213.57059082 232.36181641 212.83422852 C233.02355412 209.89539413 234.00246637 207.40933515 235.2109375 204.65234375 C237.20969278 199.96151944 239.05948782 195.23712736 240.7890625 190.44140625 C241.02187927 189.79746918 241.25469604 189.1535321 241.49456787 188.49008179 C242.45028199 185.84007235 243.40153091 183.18849995 244.34863281 180.53540039 C245.05338879 178.56489696 245.76459296 176.5968127 246.4765625 174.62890625 C246.88986816 173.47463135 247.30317383 172.32035645 247.72900391 171.13110352 C248.92192437 168.19233961 250.35500423 165.7007352 252 163 C252.63642513 161.42524527 253.22349298 159.82971319 253.76171875 158.21875 C254.07206055 157.30424072 254.38240234 156.38973145 254.70214844 155.44750977 C255.02731445 154.47483154 255.35248047 153.50215332 255.6875 152.5 C258.42627233 144.4751921 261.24321226 136.49110867 264.25 128.5625 C264.56670654 127.71816406 264.88341309 126.87382813 265.2097168 126.00390625 C266.65066744 122.23090566 268.16440858 118.58320896 270.0234375 114.99609375 C272.26094933 110.64194342 273.81805799 106.13323843 275.375 101.5 C275.98307649 99.73002211 276.59246977 97.96049611 277.203125 96.19140625 C277.50412109 95.31758301 277.80511719 94.44375977 278.11523438 93.54345703 C279.40868909 89.82513164 280.75223676 86.12719763 282.125 82.4375 C282.56070312 81.26058594 282.99640625 80.08367187 283.4453125 78.87109375 C284.61241573 75.85258574 285.95446255 72.94360495 287.33203125 70.015625 C290.87648363 62.30134542 293.51805294 54.26323854 296.27319336 46.24389648 C296.9706779 44.21963068 297.67464161 42.19769625 298.37890625 40.17578125 C298.7869751 38.98895752 299.19504395 37.80213379 299.61547852 36.5793457 C301.15112153 32.60931179 303.09635252 28.80729497 305 25 C307.97 16.75 310.94 8.5 314 0 C349.64 0 385.28 0 422 0 C422 2.64 422 5.28 422 8 C418.51822381 9.24986838 415.12588071 10.18786186 411.5 10.875 C406.58549359 11.96527705 402.65509683 13.46961157 399.78125 17.86328125 C397.07948952 22.98697702 395.87929437 27.76807729 395.86577892 33.57697296 C395.85909216 34.9175041 395.85909216 34.9175041 395.85227031 36.28511667 C395.85245467 37.25776767 395.85263903 38.23041867 395.85282898 39.23254395 C395.84731395 40.7932777 395.84731395 40.7932777 395.8416875 42.38554144 C395.83066093 45.87747533 395.82680852 49.36937944 395.82299805 52.86132812 C395.81673256 55.36310928 395.81008569 57.8648895 395.80308533 60.3666687 C395.78386695 67.87824578 395.77325789 75.38981495 395.76435754 82.90140939 C395.7599694 86.4432002 395.75460391 89.98498953 395.74936867 93.52677917 C395.73235843 105.30847106 395.71786614 117.09016204 395.71061993 128.87186432 C395.70871019 131.92727154 395.70678983 134.98267875 395.70483398 138.03808594 C395.70435024 138.79744578 395.7038665 139.55680561 395.7033681 140.33917636 C395.69507479 152.62945615 395.6697488 164.9196384 395.63725331 177.20987564 C395.60412626 189.84250728 395.58616603 202.47508944 395.58297569 215.10776472 C395.58081568 222.19463115 395.57214217 229.28135537 395.54651451 236.36817932 C395.52244396 243.03963518 395.51901711 249.71079175 395.52927589 256.38229752 C395.52977039 258.82471187 395.52347562 261.26713896 395.50971985 263.70951462 C394.9483019 285.14728695 394.9483019 285.14728695 404 304 C409.74759387 309.58793849 416.40580078 311.24938495 424.21484375 311.69140625 C424.80394531 311.79324219 425.39304687 311.89507813 426 312 C427.36952673 314.73905345 427.12621361 316.97087332 427 320 C426.67 320.66 426.34 321.32 426 322 C380.13 322 334.26 322 287 322 C287 318.7 287 315.4 287 312 C288.051875 311.85304688 288.051875 311.85304688 289.125 311.703125 C298.17303393 310.38454643 298.17303393 310.38454643 306 306 C312.30621118 297.07156325 313.30453804 286.85379021 313.24050903 276.23692322 C313.24221788 275.18792754 313.24392673 274.13893187 313.24568737 273.05814844 C313.24896749 269.56205106 313.23800285 266.0661479 313.22705078 262.57006836 C313.22648635 260.05645757 313.22680385 257.54284644 313.22793579 255.02923584 C313.22839044 249.62728872 313.22273743 244.22540354 313.21146011 238.82346916 C313.19516595 231.0133125 313.18999311 223.20317916 313.18748413 215.39300735 C313.18311316 202.71975529 313.16982031 190.04652906 313.15087891 177.37329102 C313.13250461 165.0666517 313.1183557 152.76001941 313.10986328 140.45336914 C313.10933783 139.69404978 313.10881239 138.93473042 313.10827102 138.15240138 C313.10566083 134.34289896 313.10313344 130.5333965 313.10064721 126.723894 C313.07993333 95.14924389 313.04457484 63.57462588 313 32 C311.72332131 35.18206911 310.44797451 38.36467046 309.17285156 41.54736328 C308.81446198 42.44058792 308.45607239 43.33381256 308.08682251 44.25410461 C305.21399196 51.4275514 302.45675749 58.63718139 299.75 65.875 C295.71492482 76.59352365 291.53249548 87.24336726 287.24789429 97.86437988 C282.93026629 108.5750306 278.78586568 119.34391893 274.74023438 130.16015625 C272.76114301 135.43570026 270.74055745 140.67682085 268.546875 145.8671875 C265.82759807 152.3214197 263.38402855 158.8701802 260.95233154 165.43621826 C257.07502127 175.89855105 253.13939166 186.32797468 248.94482422 196.66796875 C245.71615368 204.64330439 242.64674876 212.67860877 239.58740234 220.72021484 C237.64761673 225.79954706 235.66039666 230.84509688 233.5390625 235.8515625 C230.36986036 243.39158921 227.63636644 251.08887567 224.87768555 258.78564453 C222.00981716 266.77229477 218.91658689 274.60574118 215.52416992 282.38818359 C212.45736276 289.6555783 209.81109547 297.08820439 207.09912109 304.49365234 C204.40057549 311.8479118 201.73164248 319.09021226 198 326 C195.36 326 192.72 326 190 326 C183.49306755 313.981313 177.43209342 301.78158415 171.5223999 289.46206665 C167.30262561 280.67194774 162.96546945 271.96839936 158.35546875 263.375 C155.38179499 257.80684578 152.68061274 252.14381392 150.03735352 246.4128418 C147.13492055 240.17112082 143.94722017 234.09843674 140.71533203 228.0222168 C137.01216464 221.05510814 133.46768396 214.01815084 129.96777344 206.94726562 C128.98842585 204.97671154 127.99963884 203.01117498 127.0078125 201.046875 C123.09578568 193.28841793 119.30011345 185.49192941 115.70117188 177.58227539 C113.92300989 173.70782376 113.92300989 173.70782376 111.57495117 170.16796875 C109.64060046 167.50527548 108.39320806 164.76537566 107.0390625 161.765625 C106.47917492 160.53905873 105.91927881 159.31249636 105.359375 158.0859375 C104.49357068 156.1735458 103.6296523 154.26031552 102.76660156 152.34667969 C99.89215384 145.98865157 97.03808073 139.77316888 93.19335938 133.93310547 C90.74222751 129.96255266 88.89774314 125.66507775 86.9375 121.4375 C83.07805982 113.23063682 79.05056549 105.14279803 74.8125 97.125 C70.86980205 89.66476604 67.07915727 82.17042903 63.58520508 74.48876953 C62.1436787 71.33601446 60.6259224 68.27520316 58.89257812 65.27539062 C58.26802734 64.19451172 57.64347656 63.11363281 57 62 C56.92944349 81.35200415 56.87678615 100.70398166 56.84456348 120.05608845 C56.82919417 129.04467928 56.80829868 138.03318949 56.77368164 147.02172852 C56.74347078 154.87002013 56.72435317 162.71825329 56.71773452 170.56660146 C56.71387496 174.70964417 56.70502142 178.85251986 56.68280983 182.99550819 C56.48498641 221.48446089 57.17543979 268.00221263 85.43188477 297.69873047 C94.93019192 307.16567035 105.61014555 311.00929329 118.84765625 311.7890625 C121 312 121 312 122 313 C122.1328125 314.8125 122.1328125 314.8125 122.125 317 C122.12757813 317.721875 122.13015625 318.44375 122.1328125 319.1875 C122 321 122 321 121 322 C119.17772313 322.09643778 117.3516664 322.12187371 115.52684021 322.12025452 C113.74518463 322.12231651 113.74518463 322.12231651 111.92753601 322.12442017 C110.61267715 322.12082489 109.2978183 322.11722961 107.94311523 322.11352539 C106.55382286 322.11324352 105.16453033 322.11340125 103.77523804 322.1139679 C99.99234711 322.11425588 96.20948762 322.10835901 92.42660403 322.10139394 C88.47744323 322.09516055 84.52828178 322.09455661 80.57911682 322.09336853 C73.09574925 322.09025517 65.61239621 322.08204172 58.12903506 322.07201904 C49.61164267 322.06085805 41.0942496 322.05534749 32.57685173 322.05032361 C15.05122606 322.03985911 -2.47438543 322.02225958 -20 322 C-20 318.7 -20 315.4 -20 312 C-19.05640625 311.91363281 -18.1128125 311.82726563 -17.140625 311.73828125 C0.16752347 309.84411641 11.98823855 303.57083278 23 290 C23.66 289.01 24.32 288.02 25 287 C25.66 287 26.32 287 27 287 C27.26167969 286.16082031 27.52335938 285.32164062 27.79296875 284.45703125 C28.84999917 281.42961401 30.06861083 278.55664937 31.41113281 275.6472168 C35.27382187 267.24911142 38.0830615 258.78475693 40.48876953 249.87011719 C40.93648733 248.23233384 41.4167771 246.60352609 41.90234375 244.9765625 C46.92206184 227.9444842 47.14640956 209.9978897 47.17700195 192.37524414 C47.18328536 190.75894023 47.18993373 189.14263771 47.19691467 187.52633667 C47.21770046 182.27928629 47.22827943 177.03223638 47.23828125 171.78515625 C47.24233566 169.96818974 47.24645277 168.15122336 47.25063133 166.33425713 C47.26961143 157.80893774 47.28386814 149.28362673 47.2922433 140.75829035 C47.30204795 130.94420181 47.32848116 121.13033685 47.36874419 111.31632715 C47.39889749 103.70410698 47.41371063 96.09195111 47.41702431 88.47967237 C47.41937166 83.94285446 47.42829458 79.40627747 47.45348549 74.869524 C47.47676367 70.61019329 47.48100065 66.35126246 47.47072411 62.09188461 C47.47022891 60.53223146 47.47654464 58.97255853 47.49028015 57.41296577 C47.72434954 46.51821366 47.72434954 46.51821366 43 37 C42.35393799 36.02546875 42.35393799 36.02546875 41.69482422 35.03125 C30.33520485 19.77481901 18.67410351 12.80986347 0 9 C0 6.03 0 3.06 0 0 Z " fill="#000A6C" transform="translate(631,1482)"/>
<path d="M0 0 C0.00097681 0.64830117 0.00195362 1.29660234 0.00296003 1.96454901 C0.06124061 40.39392567 0.13504388 78.82324452 0.22898628 117.25255128 C0.24025435 121.86750462 0.25139282 126.48245826 0.26245117 131.09741211 C0.2657567 132.47553494 0.2657567 132.47553494 0.269129 133.88149864 C0.30449485 148.75488713 0.32936301 163.62827556 0.35034702 178.5016905 C0.37211474 193.76484509 0.40517441 209.02794515 0.44870156 224.29105335 C0.47520152 233.7080956 0.49290909 243.1250699 0.49934604 252.54214758 C0.50460498 259.00106992 0.52083898 265.45990678 0.54566566 271.9187833 C0.55966331 275.64440515 0.56885797 279.36987406 0.56500816 283.09552383 C0.56095693 287.13879086 0.58003501 291.18162506 0.60127258 295.22483826 C0.59642501 296.39703476 0.59157743 297.56923126 0.58658296 298.77694887 C0.65102304 306.21006593 0.9669873 313.61016228 6.125 319.375 C11.36228614 322.33520521 17.06603016 324.04290809 23 325 C23.625 328.375 23.625 328.375 24 332 C21.24404879 334.75595121 19.19063433 334.5483594 15.33984375 335 C14.67594131 335.08121094 14.01203888 335.16242188 13.32801819 335.24609375 C11.19873112 335.50553284 9.06832457 335.7535339 6.9375 336 C-4.41354359 337.29311835 -4.41354359 337.29311835 -15.61401367 339.49121094 C-20.72388717 340.58084323 -25.92118169 341.18816868 -31.09960938 341.85986328 C-33.10172834 342.12195359 -35.10148932 342.39856776 -37.1015625 342.67578125 C-59.89831549 345.73809439 -59.89831549 345.73809439 -66.01879883 343.14453125 C-69.38245182 340.00360096 -69.37906339 335.89183486 -69.70703125 331.5078125 C-69.76655872 329.04734388 -69.80096331 326.58616156 -69.8125 324.125 C-69.83763672 322.86429688 -69.86277344 321.60359375 -69.88867188 320.3046875 C-69.94741953 317.20281113 -69.98379231 314.10234223 -70 311 C-70.44947998 311.59530518 -70.89895996 312.19061035 -71.36206055 312.80395508 C-85.5938214 331.41966565 -105.42603947 341.57297647 -128.5625 344.6875 C-154.89015778 347.08092343 -181.20168824 341.51642575 -202.41015625 325.1875 C-210.89503108 318.02078823 -217.4159691 310.57834965 -223 301 C-223.38881348 300.41621582 -223.77762695 299.83243164 -224.17822266 299.23095703 C-240.94404255 273.85069014 -241.81038803 234.09487867 -236.81689453 204.92700195 C-236.0477736 201.22621242 -235.11138666 197.61200666 -234 194 C-233.80212891 193.33693848 -233.60425781 192.67387695 -233.40039062 191.99072266 C-228.31378408 175.37694385 -218.05041763 157.3647043 -203 148 C-202.38125 147.360625 -201.7625 146.72125 -201.125 146.0625 C-192.15348774 137.35485574 -177.65838069 132.53407651 -165.6875 129.703125 C-163.31223474 129.08168932 -161.08279956 128.32108131 -158.7734375 127.49609375 C-154.07590672 125.91375738 -149.54959252 125.23976125 -144.625 124.8125 C-143.7599585 124.73427002 -142.89491699 124.65604004 -142.00366211 124.57543945 C-119.14576134 122.67113356 -93.78202325 122.93205918 -73.77856445 135.60595703 C-73.06803421 136.05472198 -72.35750397 136.50348694 -71.6254425 136.96585083 C-71.08904648 137.30712006 -70.55265045 137.64838928 -70 138 C-69.95356563 126.551295 -69.91807446 115.10261259 -69.89637566 103.65383244 C-69.88595893 98.33714015 -69.87183834 93.02051251 -69.84912109 87.70385742 C-69.82731737 82.56859645 -69.81541551 77.4333975 -69.81024551 72.2980938 C-69.80656325 70.34338849 -69.79937283 68.3886864 -69.78853989 66.43400764 C-69.77392485 63.68648184 -69.77202623 60.93920909 -69.77294922 58.19165039 C-69.76216339 56.99186302 -69.76216339 56.99186302 -69.75115967 55.76783752 C-69.77582238 48.9392466 -70.3617917 42.52170273 -74.13671875 36.7109375 C-77.45937539 33.56506614 -80.73589122 31.63014537 -84.8125 29.625 C-85.50537109 29.27050781 -86.19824219 28.91601562 -86.91210938 28.55078125 C-88.60193534 27.68838731 -90.30014112 26.84244578 -92 26 C-92 23.36 -92 20.72 -92 18 C-91.37439178 17.87916046 -90.74878357 17.75832092 -90.10421753 17.63381958 C-83.5818816 16.37317641 -77.06065516 15.1069106 -70.54003906 13.83740234 C-68.10770103 13.36460975 -65.67508552 12.89324232 -63.2421875 12.42333984 C-59.74144416 11.74692988 -56.24173691 11.06536909 -52.7421875 10.3828125 C-51.11529495 10.07018967 -51.11529495 10.07018967 -49.45553589 9.75125122 C-44.49064536 8.77804587 -39.78273246 7.67332973 -35 6 C-32.68347606 5.46304509 -30.3582863 4.9626241 -28.02734375 4.4921875 C-27.05904381 4.29666794 -27.05904381 4.29666794 -26.07118225 4.09719849 C-24.71605225 3.82476082 -23.3605297 3.55426903 -22.00463867 3.28564453 C-19.93859829 2.87521818 -17.87457609 2.45556577 -15.81054688 2.03515625 C-14.48709082 1.77027485 -13.16352655 1.50593344 -11.83984375 1.2421875 C-10.64738037 1.0035498 -9.45491699 0.76491211 -8.22631836 0.51904297 C-5.39382125 0.06335709 -2.85521994 -0.04030007 0 0 Z M-142 145 C-158.12603982 165.62932222 -158.22052243 196.81243479 -158.1875 221.6875 C-158.18756042 222.39433929 -158.18762085 223.10117859 -158.18768311 223.82943726 C-158.32634475 255.72497918 -158.32634475 255.72497918 -151.25 286.5625 C-150.98614502 287.28429443 -150.72229004 288.00608887 -150.45043945 288.74975586 C-146.26491483 299.89581416 -141.42143439 309.68902763 -130.375 315.34375 C-118.63295255 320.23626977 -107.00061218 320.24118021 -95 316 C-82.9992784 310.58143974 -75.78795124 301.06136762 -71 289 C-69.35994083 283.34004961 -68.70945023 278.340639 -68.74121094 272.46704102 C-68.7377063 271.65437271 -68.73420166 270.84170441 -68.73059082 270.00440979 C-68.72184413 267.33748633 -68.72760258 264.67083209 -68.734375 262.00390625 C-68.73302515 260.12792409 -68.73108196 258.25194228 -68.72857666 256.3759613 C-68.72563393 252.44632635 -68.72989128 248.51678252 -68.73925781 244.5871582 C-68.75058077 239.59828343 -68.74413312 234.60962561 -68.73211288 229.62075901 C-68.72481029 225.74350924 -68.72722148 221.86630899 -68.73236847 217.98905754 C-68.7336856 216.1526175 -68.73212673 214.31617269 -68.72740936 212.47973824 C-68.6807298 189.17849052 -70.59552973 167.47312372 -84.25 147.75 C-93.44386292 138.55613708 -103.64131613 133.66920526 -116.625 133.5 C-127.47788134 133.64217748 -134.61909269 137.08494808 -142 145 Z " fill="#000A6C" transform="translate(1556,1463)"/>
<path d="M0 0 C0.92683594 0.35964844 1.85367187 0.71929688 2.80859375 1.08984375 C10.23889156 4.05249753 18.25775073 7.25775073 24 13 C24.09538269 15.63845825 24.09538269 15.63845825 23.87573242 19.03173828 C23.79872604 20.30131378 23.72171967 21.57088928 23.64237976 22.87893677 C23.54695359 24.27607643 23.45131077 25.6732013 23.35546875 27.0703125 C23.26440292 28.5088022 23.17427371 29.94735147 23.08503723 31.38595581 C22.84646973 35.19121586 22.59523323 38.99553856 22.34136963 42.79980469 C22.0892599 46.60955165 21.84874986 50.42002632 21.60742188 54.23046875 C21.16685469 61.16283519 20.71664163 68.09448524 20.25448608 75.02545166 C20.07330004 77.85520435 19.90367005 80.68395982 19.74771118 83.51507568 C19.70567975 84.25407042 19.66364832 84.99306515 19.62034321 85.75445366 C19.53979952 87.18075972 19.46299324 88.60728294 19.39036083 90.03401375 C19.11190337 94.88809663 19.11190337 94.88809663 18 96 C15.32941149 96.14115161 12.67567762 96.04247107 10 96 C7.55775861 90.64143507 5.84918503 85.28483917 4.25 79.625 C-0.44969714 63.64367694 -6.63048931 49.79107753 -16 36 C-16.71671875 34.93265625 -17.4334375 33.8653125 -18.171875 32.765625 C-21.9767346 27.3090434 -25.85007336 23.18431539 -31 19 C-31 18.34 -31 17.68 -31 17 C-31.81404297 16.61908203 -31.81404297 16.61908203 -32.64453125 16.23046875 C-35.45250571 14.76361642 -38.03318872 13.04239045 -40.6875 11.3125 C-45.82541958 8.07682423 -51.0826122 5.45604853 -56.6875 3.125 C-57.36321045 2.83923096 -58.0389209 2.55346191 -58.73510742 2.2590332 C-68.50354216 -1.6631681 -77.98046957 -2.34169327 -88.4375 -2.3125 C-89.58798828 -2.32861328 -90.73847656 -2.34472656 -91.92382812 -2.36132812 C-107.21717357 -2.36999291 -121.39218073 2.46509849 -132.5546875 13.21484375 C-155.25101515 39.06545336 -156.8204808 77.23453518 -159.48287964 109.8717041 C-159.61558815 111.49524084 -159.75109906 113.11855189 -159.8899231 114.74157715 C-161.75169036 136.78633742 -161.21545465 158.7985222 -159.88305664 180.85986328 C-159.68712372 184.13128257 -159.5079232 187.40333423 -159.33007812 190.67578125 C-158.26789606 209.34621348 -156.65984207 228.13040385 -152.6875 246.4375 C-152.47730225 247.41920166 -152.26710449 248.40090332 -152.05053711 249.41235352 C-149.29321627 261.77543413 -145.96002377 273.91066988 -138 284 C-137.443125 284.76699219 -136.88625 285.53398438 -136.3125 286.32421875 C-128.17667834 297.31121006 -118.08307602 303.83727602 -104.52148438 306.625 C-99.67215828 307.34620109 -94.83251049 307.38248415 -89.9375 307.375 C-88.83784912 307.37338867 -87.73819824 307.37177734 -86.60522461 307.37011719 C-70.74216398 307.13299076 -56.99100187 302.28641237 -43.03125 294.953125 C-41 294 -41 294 -39 294 C-38.67 293.01 -38.34 292.02 -38 291 C-35.9609375 289.16796875 -35.9609375 289.16796875 -33.375 287.1875 C-31.57611836 285.80097738 -29.78521562 284.40407454 -28 283 C-27.44489746 282.57525391 -26.88979492 282.15050781 -26.31787109 281.71289062 C-21.43914651 277.80130223 -18.21512215 273.37626815 -14.875 268.125 C-14.37613281 267.36058594 -13.87726563 266.59617187 -13.36328125 265.80859375 C-11.89361886 263.54846021 -10.44583962 261.27542383 -9 259 C-8.3198584 257.95622192 -8.3198584 257.95622192 -7.62597656 256.89135742 C1.32292598 242.99110809 5.56840974 226.0140879 9 210 C10 209 10 209 11.8125 208.8671875 C12.534375 208.86976563 13.25625 208.87234375 14 208.875 C14.721875 208.87242187 15.44375 208.86984375 16.1875 208.8671875 C18 209 18 209 19 210 C19.24446847 212.4029394 19.42764974 214.78470068 19.57250977 217.19433594 C19.62142365 217.947229 19.67033752 218.70012207 19.72073364 219.47583008 C19.88214183 221.9784123 20.03684574 224.48136125 20.19140625 226.984375 C20.30171766 228.71976987 20.41239437 230.45514155 20.52342224 232.19049072 C20.75567522 235.83547999 20.98486382 239.48064438 21.21166992 243.12597656 C21.50219769 247.79470913 21.79810869 252.46307942 22.09605503 257.13134384 C22.32479364 260.71892558 22.55173566 264.306619 22.77802849 267.89435577 C22.88657476 269.61513418 22.99542504 271.33589345 23.10458565 273.056633 C23.25700892 275.46701708 23.40727898 277.87752554 23.55688477 280.28808594 C23.60206741 280.99789612 23.64725006 281.7077063 23.69380188 282.43902588 C23.80756139 284.29200305 23.90453395 286.14599033 24 288 C24.07425453 289.42122162 24.07425453 289.42122162 24.15000916 290.87115479 C24 293 24 293 22.04296875 294.7734375 C-9.23398904 312.31591724 -45.68308757 317.05083326 -81 318 C-82.95099609 318.061875 -82.95099609 318.061875 -84.94140625 318.125 C-103.58370706 318.43092494 -121.8968885 316.39768982 -140 312 C-140 311.34 -140 310.68 -140 310 C-141.09699219 309.91105469 -142.19398437 309.82210938 -143.32421875 309.73046875 C-148.76314748 309.04507043 -153.69642224 307.21961718 -158.8125 305.3125 C-159.79154297 304.95019287 -160.77058594 304.58788574 -161.77929688 304.21459961 C-168.54240821 301.6615138 -174.87865652 298.87344497 -181 295 C-181.55091309 294.6582373 -182.10182617 294.31647461 -182.66943359 293.96435547 C-193.04013513 287.52495788 -202.55486504 280.71411855 -211.4375 272.3125 C-212.18177246 271.60915527 -212.92604492 270.90581055 -213.69287109 270.18115234 C-219.31881245 264.79387983 -224.37083254 259.28033546 -229 253 C-229.59683594 252.20722656 -230.19367188 251.41445312 -230.80859375 250.59765625 C-237.98958715 240.72978781 -243.7915021 230.41984197 -247.91796875 218.9375 C-248.84383214 216.42396472 -249.88487119 214.08822591 -251.0625 211.6875 C-266.63207132 176.90708665 -263.46735042 127.99200581 -251 93 C-250.67 92.01 -250.34 91.02 -250 90 C-249.34 90 -248.68 90 -248 90 C-247.91105469 89.16984375 -247.82210938 88.3396875 -247.73046875 87.484375 C-246.85675526 83.31671491 -245.26395033 80.00683402 -243.3125 76.25 C-242.95236816 75.54625244 -242.59223633 74.84250488 -242.22119141 74.11743164 C-238.26578654 66.46206416 -234.29937983 59.11761487 -228.484375 52.703125 C-226.93153252 50.92144258 -225.60586789 49.05977778 -224.25 47.125 C-221.12578885 42.87442851 -217.34625894 39.60545977 -213.375 36.16015625 C-211.34973248 34.31809549 -209.68679544 32.51703853 -208 30.375 C-205.06485211 26.81030786 -201.63484341 24.42086031 -197.8046875 21.875 C-195.88139663 20.58923451 -193.99147592 19.25253801 -192.1328125 17.875 C-180.52717309 9.37010395 -167.45024311 2.94483254 -153.640625 -1.1484375 C-150.8499392 -1.99574099 -150.8499392 -1.99574099 -147.70703125 -3.47265625 C-143.72250628 -5.21379321 -139.68097283 -6.16491285 -135.4375 -7.0625 C-134.64956055 -7.23241455 -133.86162109 -7.4023291 -133.04980469 -7.57739258 C-126.07230512 -9.0478632 -119.08841893 -10.20495892 -112 -11 C-111.00097656 -11.11214844 -110.00195312 -11.22429687 -108.97265625 -11.33984375 C-73.95611673 -14.49955622 -32.95766247 -13.33858209 0 0 Z " fill="#000A6C" transform="translate(1997,1490)"/>
<path d="M0 0 C0.95390625 0.37253906 1.9078125 0.74507812 2.890625 1.12890625 C19.78709211 7.90022912 32.76709847 17.39789063 41 34 C41.40992187 34.77472656 41.81984375 35.54945312 42.2421875 36.34765625 C45.17915592 42.24895615 47.05949897 48.27822826 48.75 54.625 C49.06614258 55.80618408 49.06614258 55.80618408 49.38867188 57.01123047 C51.46224574 65.1576563 52.14590337 73.21152723 52.15771484 81.60229492 C52.16279556 82.41017456 52.16787628 83.2180542 52.17311096 84.05041504 C52.18373199 85.78870281 52.19238386 87.52700355 52.19923019 89.26531029 C52.21115 92.0297514 52.23063502 94.79404526 52.25234985 97.5584259 C52.31352534 105.41300457 52.36786075 113.26756483 52.40136719 121.12231445 C52.4224771 125.94391946 52.45790386 130.76524877 52.50212479 135.58669472 C52.51615075 137.40883423 52.52497641 139.23102244 52.52817917 141.05321312 C52.2684689 161.79668595 52.2684689 161.79668595 61 180 C64.25171951 182.96480308 66.88720842 183.91601573 71.3125 184.25 C75.29326628 183.98011754 77.55396908 182.92336609 81 181 C81.66 181 82.32 181 83 181 C83.33 180.01 83.66 179.02 84 178 C89.75 178.875 89.75 178.875 92 180 C91.56097257 188.56103482 85.26913581 195.40146442 79.32421875 201.0859375 C64.99362355 212.88760413 47.17760105 217.08961726 28.92016602 215.72412109 C16.43214327 214.49678951 6.93889898 210.58377985 -3 203 C-3.84820313 202.41734375 -4.69640625 201.8346875 -5.5703125 201.234375 C-8.76090085 198.30026481 -10.39706584 195.09540673 -12.3125 191.25 C-12.67150391 190.55261719 -13.03050781 189.85523438 -13.40039062 189.13671875 C-14.27725943 187.42974748 -15.14008015 185.71557211 -16 184 C-16.57492188 184.88171875 -17.14984375 185.7634375 -17.7421875 186.671875 C-27.92587151 201.87166933 -42.57247279 210.82976358 -60.44140625 214.39453125 C-64.97275445 215.16550707 -69.40688832 215.80385288 -74 216 C-74.66257812 216.0515625 -75.32515625 216.103125 -76.0078125 216.15625 C-81.28967735 216.39724764 -86.37249174 215.56809287 -91.5625 214.6875 C-92.27092041 214.56987305 -92.97934082 214.45224609 -93.70922852 214.33105469 C-98.74049826 213.419352 -103.25489129 211.9055161 -108 210 C-108 209.34 -108 208.68 -108 208 C-108.66 207.95875 -109.32 207.9175 -110 207.875 C-118.18612189 205.48738112 -124.79311099 198.04510576 -129.25390625 191.02734375 C-133.37088887 183.3858594 -134.37243687 175.25935408 -134.3125 166.6875 C-134.30831055 165.86080811 -134.30412109 165.03411621 -134.29980469 164.18237305 C-134.0613092 151.17802587 -130.53366418 139.92421916 -121.5625 130.359375 C-105.3387657 115.42166842 -84.19029699 110.50964034 -63.46923828 104.75854492 C-60.99686601 104.04347548 -60.99686601 104.04347548 -58.68334961 103.02905273 C-55.19644471 101.69184009 -51.6298383 100.87748383 -47.99609375 100.0546875 C-46.85564354 99.7925798 -46.85564354 99.7925798 -45.69215393 99.525177 C-44.09153414 99.15849049 -42.49044357 98.7938536 -40.88891602 98.43115234 C-38.44073931 97.8757349 -35.9947497 97.31134939 -33.54882812 96.74609375 C-31.98970675 96.39008408 -30.43046584 96.03459741 -28.87109375 95.6796875 C-28.14184189 95.51097137 -27.41259003 95.34225525 -26.66123962 95.16842651 C-23.31935211 94.41774063 -20.44830424 94 -17 94 C-17.04486587 88.49000763 -17.11541124 82.9810852 -17.20751953 77.47167969 C-17.23535762 75.60620751 -17.25675215 73.74062551 -17.27099609 71.875 C-17.42362037 52.99028979 -18.80632907 35.40110319 -31.21875 20.30078125 C-33 18 -33 18 -33 16 C-33.86625 15.56880859 -33.86625 15.56880859 -34.75 15.12890625 C-36.17092503 14.41597685 -37.58815251 13.69558512 -39 12.96484375 C-39.99 12.45630859 -39.99 12.45630859 -41 11.9375 C-41.99 11.42509766 -41.99 11.42509766 -43 10.90234375 C-51.59434717 7.02481602 -60.78998994 8.70860523 -69.32421875 11.86328125 C-73.80079805 13.76501056 -77.10996012 15.21992024 -79.375 19.75 C-79.58125 20.4925 -79.7875 21.235 -80 22 C-79.03900391 22.23783203 -79.03900391 22.23783203 -78.05859375 22.48046875 C-70.97327468 24.39170981 -65.47092546 26.26222592 -61.30859375 32.55859375 C-56.56747758 40.97835909 -53.21196636 48.43001593 -55.83984375 58.0859375 C-58.9837837 67.16843068 -63.39035555 74.96422461 -72.1875 79.5 C-81.3968704 82.94557479 -91.00885161 82.93772922 -100 79 C-106.59881419 75.50651013 -112.20054095 69.8356402 -114.9375 62.8125 C-117.2945123 54.35067943 -117.28443671 44.79574199 -113 37 C-109.35004657 30.76189777 -104.99660284 25.21151048 -100 20 C-99.45214844 19.42636719 -98.90429688 18.85273437 -98.33984375 18.26171875 C-94.01871329 14.13052809 -89.17098826 11.18282597 -84 8.25 C-83.33556885 7.87302979 -82.6711377 7.49605957 -81.98657227 7.10766602 C-70.87589076 1 -70.87589076 1 -65 1 C-65 0.34 -65 -0.32 -65 -1 C-44.41524443 -6.05869573 -20.13386565 -8.317714 0 0 Z M-30 107 C-30.98097656 107.42410156 -31.96195313 107.84820313 -32.97265625 108.28515625 C-45.12959908 113.9165659 -53.8705808 121.92031535 -58.9921875 134.421875 C-63.27305262 146.57137791 -63.92678909 160.94509053 -59 173 C-55.49745613 178.65225334 -50.57298834 183.36247852 -44 185 C-37.27441221 185.37364377 -32.25370473 184.39845047 -27 180 C-25.96875 179.2575 -24.9375 178.515 -23.875 177.75 C-18.32117662 172.4376472 -16.77162963 167.74440823 -16.54589844 160.21679688 C-16.54652789 157.54850024 -16.56801645 154.88615659 -16.609375 152.21875 C-16.61684786 150.79529622 -16.62253585 149.37183206 -16.62652588 147.94836426 C-16.6417004 144.22618533 -16.68090921 140.50464413 -16.7253418 136.78271484 C-16.76647302 132.97502262 -16.78457473 129.16722599 -16.8046875 125.359375 C-16.84741345 117.90596123 -16.91556276 110.45307043 -17 103 C-21.76419055 103 -25.67592067 105.1166493 -30 107 Z " fill="#000A6C" transform="translate(2186,1592)"/>
<path d="M0 0 C1.13695313 0.4434375 2.27390625 0.886875 3.4453125 1.34375 C10.92887268 4.33081861 17.06523014 7.54501822 23 13 C24.39412109 14.27423828 24.39412109 14.27423828 25.81640625 15.57421875 C31.39809058 20.83182924 35.73581944 26.00532737 39 33 C39.40476562 33.75539063 39.80953125 34.51078125 40.2265625 35.2890625 C51.40019966 56.33388831 53 77.48882575 53 101 C9.11 101 -34.78 101 -80 101 C-77.36459299 124.90924344 -77.36459299 124.90924344 -70 147 C-69.72140137 147.64275879 -69.44280273 148.28551758 -69.15576172 148.94775391 C-62.76410009 163.21902232 -51.9985133 172.631438 -37.5625 178.25 C-20.6312854 183.97322747 -4.27110659 182.84063069 12.11328125 175.578125 C22.93964106 169.65951964 30.95412239 161.12386654 36 150 C36.66200062 148.66434383 37.32744021 147.33037046 38 146 C41.73487777 146.4979837 43.81237635 146.87491756 47 149 C45.12336302 164.1538436 35.65151751 178.97311745 23.93359375 188.4296875 C21.98325783 189.96149107 21.98325783 189.96149107 20.28515625 191.6953125 C2.45664047 209.09469551 -27.25407597 214.38616937 -51.15625 214.15234375 C-79.38056691 213.03369704 -102.75415147 202.50653384 -123 183 C-123.7321875 182.34257813 -124.464375 181.68515625 -125.21875 181.0078125 C-133.98866539 172.89912089 -140.11382278 161.80102332 -145 151 C-145.41894531 150.12601563 -145.83789062 149.25203125 -146.26953125 148.3515625 C-151.47194912 136.87795209 -154.56374888 123.61492826 -155 111 C-155.0515625 109.71351562 -155.103125 108.42703125 -155.15625 107.1015625 C-155.68895804 87.20269765 -152.59137494 67.61681112 -143 50 C-142.54753906 49.10539062 -142.09507812 48.21078125 -141.62890625 47.2890625 C-129.91311085 24.61947465 -110.5326105 9.64783545 -87.11523438 0.80029297 C-85.35326021 0.13365501 -83.6044319 -0.56760046 -81.859375 -1.27734375 C-57.85581138 -10.36440712 -23.48069102 -10.56274246 0 0 Z M-55 7 C-55.56332031 7.41636719 -56.12664063 7.83273437 -56.70703125 8.26171875 C-71.1155021 20.65365418 -76.26075525 45.97368076 -78.9375 63.8125 C-79.05391846 64.57393311 -79.17033691 65.33536621 -79.2902832 66.11987305 C-80.40451396 74.8130524 -80 83.0850131 -80 92 C-56.9 92 -33.8 92 -10 92 C-11.05037842 63.63978257 -12.22763811 39.46754289 -24 14 C-24.66 14 -25.32 14 -26 14 C-26.20625 13.443125 -26.4125 12.88625 -26.625 12.3125 C-29.3717518 7.69296289 -33.8044382 4.3290972 -39 3 C-45.29560275 2.22643823 -49.88482939 3.0533299 -55 7 Z " fill="#000A6C" transform="translate(2657,1594)"/>
<path d="M0 0 C22.54340354 18.668548 30.48903648 46.23123692 33.234375 74.40527344 C34.38900602 88.22198795 34.38900602 88.22198795 33 91 C-10.89 91 -54.78 91 -100 91 C-95.35540657 130.11303171 -95.35540657 130.11303171 -72.234375 160.41015625 C-57.97082726 170.55921906 -41.21113853 173.71827155 -24.1875 170.875 C-17.37777943 169.62587966 -11.65721925 167.35870609 -5.4765625 164.20703125 C-3 163 -3 163 -1 163 C-0.67 162.01 -0.34 161.02 0 160 C1.63671875 158.45703125 1.63671875 158.45703125 3.6875 156.8125 C10.60287599 150.9115441 14.68686934 144.41924967 18 136 C24.75 136.875 24.75 136.875 27 138 C23.9373322 156.94018246 13.347735 171.88693707 -1.6875 183.6875 C-16.44197662 194.29052692 -33.21873432 200.06721916 -51 203 C-51.79792969 203.13277344 -52.59585937 203.26554687 -53.41796875 203.40234375 C-80.69317743 207.13797271 -108.81093771 200.30147368 -131 184 C-134.48115512 181.14353069 -137.75065155 178.11567272 -141 175 C-141.8353125 174.23945312 -142.670625 173.47890625 -143.53125 172.6953125 C-157.14337183 159.88143239 -166.45816387 141.99912838 -171 124 C-171.2990625 122.9171875 -171.598125 121.834375 -171.90625 120.71875 C-178.4934284 92.66224941 -174.68629079 60.34498294 -161 35 C-160.34 35 -159.68 35 -159 35 C-158.74734375 34.30003906 -158.4946875 33.60007812 -158.234375 32.87890625 C-149.80379908 13.21645546 -129.86977909 0.31241073 -111 -8 C-107.63509993 -9.17498673 -104.27251387 -10.21913548 -100.83984375 -11.17578125 C-98.05349607 -11.91591703 -98.05349607 -11.91591703 -95.73046875 -13.00390625 C-66.94082812 -23.50656485 -24.65334153 -18.25846761 0 0 Z M-81 3 C-82.95034939 5.82400959 -84.56153687 8.7598738 -86.125 11.8125 C-86.55240479 12.63999756 -86.97980957 13.46749512 -87.42016602 14.32006836 C-97.73367647 35.04748801 -100 59.2007384 -100 82 C-76.9 82 -53.8 82 -30 82 C-29.88160407 67.78251836 -29.88160407 67.78251836 -30.75 53.6875 C-30.83652832 52.82995117 -30.92305664 51.97240234 -31.01220703 51.08886719 C-31.7187795 44.59878088 -32.70598036 38.17217299 -33.875 31.75 C-34.02420898 30.90526123 -34.17341797 30.06052246 -34.32714844 29.19018555 C-35.45962606 23.36626304 -37.40115299 18.32052511 -40 13 C-40.45761719 12.00871094 -40.91523437 11.01742188 -41.38671875 9.99609375 C-45.06149543 2.76792942 -49.99574219 -4.33191406 -58 -7 C-68.4715477 -7.93721253 -74.20544777 -4.76693229 -81 3 Z " fill="#000A6C" transform="translate(1250,1604)"/>
<path d="M0 0 C1.18691493 2.37382985 1.15572867 3.89178893 1.20532227 6.54150391 C1.2352401 7.95274033 1.2352401 7.95274033 1.26576233 9.39248657 C1.28247482 10.41023163 1.29918732 11.42797668 1.31640625 12.4765625 C1.33718735 13.51694672 1.35796844 14.55733093 1.37937927 15.62924194 C1.44489872 18.96109249 1.50377092 22.2930235 1.5625 25.625 C1.60568294 27.88021674 1.64929715 30.13542527 1.69335938 32.390625 C1.80058252 37.92699764 1.90234446 43.46345078 2 49 C2.65299072 48.14494873 3.30598145 47.28989746 3.97875977 46.40893555 C33.70759285 7.56188028 33.70759285 7.56188028 50 5 C50 4.34 50 3.68 50 3 C61.43317463 -2.25926033 74.19737751 -2.15982513 86 2 C89.63801154 4.01572068 92.79679578 6.35919042 96 9 C97.3921875 9.9590625 97.3921875 9.9590625 98.8125 10.9375 C106.00200289 17.71617415 109.05459756 26.56885615 109.35327148 36.2409668 C109.42086562 43.26847894 109.14748243 49.58240596 106 56 C105.443125 57.175625 104.88625 58.35125 104.3125 59.5625 C98.27860613 69.27505036 88.4573628 75.77302319 77.43359375 78.67578125 C63.77642725 80.49527534 53.91235857 77.22141387 43 69 C35.5104828 62.32726933 31.86185121 53.9112889 31 44 C22.25950964 44.44823027 14.63610335 51.50397581 8.57757568 57.32910156 C-0.44960137 68.22862933 0.79755911 80.19561852 1.015625 93.75 C1.02481593 96.25617447 1.03043047 98.76236435 1.03265381 101.26855469 C1.04816214 107.1713241 1.10569487 113.07255263 1.18220305 118.97481918 C1.25699058 124.98814545 1.27523121 131.00084557 1.2872963 137.0145874 C1.30282881 143.42653008 1.34639331 149.8382032 1.390625 156.25 C1.39626717 157.45797241 1.40190933 158.66594482 1.40772247 159.91052246 C0.57558909 181.71731512 0.57558909 181.71731512 9 201 C12.1275381 203.88695825 14.977975 205.62102 19 207 C19.09765625 213.15234375 19.09765625 213.15234375 19 215 C18 216 18 216 16.23712826 216.12304783 C15.46374394 216.12212604 14.69035963 216.12120424 13.89353943 216.12025452 C13.00867859 216.12162918 12.12381775 216.12300385 11.21214294 216.12442017 C10.23391068 216.12082489 9.25567841 216.11722961 8.24780273 216.11352539 C7.2235318 216.11367142 6.19926086 216.11381744 5.14395142 216.1139679 C1.74047771 216.11326828 -1.66294204 216.10547363 -5.06640625 216.09765625 C-7.41910268 216.09579224 -9.7717995 216.09436826 -12.12449646 216.09336853 C-18.33056705 216.08954199 -24.5366144 216.07971055 -30.74267578 216.06866455 C-37.06998378 216.05845334 -43.39729552 216.05387154 -49.72460938 216.04882812 C-62.14974982 216.0380884 -74.57487298 216.02101036 -87 216 C-87 212.7 -87 209.4 -87 206 C-85.1746875 205.195625 -85.1746875 205.195625 -83.3125 204.375 C-78.1502656 201.73003891 -75.08058376 198.9252623 -73.06640625 193.47265625 C-68.5254746 177.28608171 -69.8513712 159.54742102 -69.8671875 142.9140625 C-69.8665126 140.40115347 -69.86554102 137.8882445 -69.86428833 135.37533569 C-69.86263499 129.468542 -69.86609759 123.56176634 -69.8714391 117.6549753 C-69.87573989 112.2878278 -69.87268554 106.92070398 -69.8678025 101.55355799 C-69.8627004 95.70855682 -69.86326175 89.86356835 -69.86618423 84.01856613 C-69.86684897 81.54751964 -69.86604102 79.07647227 -69.86370468 76.60542679 C-69.86115472 73.15310658 -69.86505097 69.7008506 -69.87060547 66.24853516 C-69.86858124 65.23847412 -69.86655701 64.22841309 -69.86447144 63.18774414 C-69.66090929 49.84713284 -69.66090929 49.84713284 -75 38 C-79.43687395 34.15209162 -84.17242369 31.29199641 -89.5625 29 C-93 27 -93 27 -94.1875 23.4375 C-94 20 -94 20 -92.88801575 18.37904358 C-90.23746545 16.44302987 -87.82605883 16.10111885 -84.60424805 15.49780273 C-83.9599585 15.37378082 -83.31566895 15.24975891 -82.65185547 15.12197876 C-80.52371013 14.71499463 -78.39288196 14.32443739 -76.26171875 13.93359375 C-74.77800773 13.65234631 -73.29451501 13.36994503 -71.81123352 13.08644104 C-67.9043564 12.3423568 -63.99511359 11.61158572 -60.08508301 10.88427734 C-53.837082 9.71999428 -47.59271095 8.53646395 -41.34864235 7.35130501 C-39.17257304 6.94036466 -36.9954267 6.53558712 -34.81803894 6.13169861 C-33.47331027 5.87887973 -32.12860776 5.62592167 -30.78393555 5.37280273 C-29.61606003 5.15534897 -28.44818451 4.9378952 -27.24491882 4.71385193 C-24.06220338 4.01368416 -21.07804315 3.0616909 -18 2 C-15.43751896 1.39596761 -12.89134794 0.83031022 -10.3125 0.3125 C-9.64927734 0.17005859 -8.98605469 0.02761719 -8.30273438 -0.11914062 C-5.03756369 -0.78006641 -3.21832574 -1.07277525 0 0 Z " fill="#000A6B" transform="translate(2378,1588)"/>
<path d="M0 0 C0.00238835 0.91476671 0.00477671 1.82953342 0.00723743 2.77202034 C0.06648636 25.07538377 0.14209952 47.37864003 0.23571491 69.68188667 C0.2805967 80.46776474 0.32002881 91.25361035 0.34643555 102.03955078 C0.36947744 111.44537206 0.40294424 120.85108996 0.44870156 130.25682914 C0.47255051 135.23273916 0.4913337 140.20854732 0.49761391 145.18451309 C0.50370264 149.87787197 0.52383776 154.57097052 0.55427551 159.26423264 C0.56299545 160.9773197 0.56679102 162.69044087 0.56500816 164.40354919 C0.20377889 184.64313002 0.20377889 184.64313002 9 202 C11.87862065 203.96907328 14.82581145 205.56158776 18 207 C18.09765625 213.15234375 18.09765625 213.15234375 18 215 C17 216 17 216 15.23712826 216.12304783 C14.46374394 216.12212604 13.69035963 216.12120424 12.89353943 216.12025452 C12.00867859 216.12162918 11.12381775 216.12300385 10.21214294 216.12442017 C9.23391068 216.12082489 8.25567841 216.11722961 7.24780273 216.11352539 C6.2235318 216.11367142 5.19926086 216.11381744 4.14395142 216.1139679 C0.74047771 216.11326828 -2.66294204 216.10547363 -6.06640625 216.09765625 C-8.41910268 216.09579224 -10.7717995 216.09436826 -13.12449646 216.09336853 C-19.33056705 216.08954199 -25.5366144 216.07971055 -31.74267578 216.06866455 C-38.06998378 216.05845334 -44.39729552 216.05387154 -50.72460938 216.04882812 C-63.14974982 216.0380884 -75.57487298 216.02101036 -88 216 C-88.04936247 214.5423304 -88.08481976 213.08418461 -88.11425781 211.62597656 C-88.13546692 210.81404846 -88.15667603 210.00212036 -88.17852783 209.16558838 C-88 207 -88 207 -86.171875 204.984375 C-84.97304687 204.37335938 -84.97304687 204.37335938 -83.75 203.75 C-77.36361546 200.07632739 -74.86526694 196.39607161 -72.61328125 189.4765625 C-70.78542383 182.09527841 -70.8400479 174.81408547 -70.82299805 167.24682617 C-70.81642685 165.9743956 -70.80985565 164.70196503 -70.80308533 163.39097595 C-70.78217199 159.19165276 -70.77169739 154.99232972 -70.76171875 150.79296875 C-70.75766693 149.34105219 -70.75354989 147.88913581 -70.74936867 146.43721962 C-70.7303478 139.61566049 -70.7161083 132.794112 -70.7077567 125.9725315 C-70.69798482 118.12291422 -70.67165373 110.27357895 -70.63125581 102.424061 C-70.60102212 96.33888591 -70.58628113 90.25379138 -70.58297569 84.16854268 C-70.58063425 80.54196912 -70.57179228 76.91569792 -70.54651451 73.28920555 C-70.51874036 69.23974412 -70.52308696 65.19090827 -70.5300293 61.14135742 C-70.51081421 59.3603363 -70.51081421 59.3603363 -70.49121094 57.54333496 C-70.53591412 50.36965748 -71.42245738 44.32016337 -75 38 C-77.42611543 35.55401535 -77.42611543 35.55401535 -80.3125 34.125 C-81.75496094 33.30708984 -81.75496094 33.30708984 -83.2265625 32.47265625 C-84.14179687 31.98667969 -85.05703125 31.50070312 -86 31 C-87.39768418 30.19068803 -88.79386805 29.37877014 -90.1875 28.5625 C-91.115625 28.046875 -92.04375 27.53125 -93 27 C-93 24.03 -93 21.06 -93 18 C-84.64554284 15.8197837 -76.26828354 13.9929697 -67.7890625 12.37109375 C-65.30338056 11.88869689 -62.81770362 11.40627427 -60.33203125 10.92382812 C-56.46132289 10.17665471 -52.59035752 9.43083265 -48.71923828 8.68579102 C-44.9501938 7.95921963 -41.18210326 7.22784975 -37.4140625 6.49609375 C-36.25774323 6.27521591 -35.10142395 6.05433807 -33.9100647 5.82676697 C-32.82808807 5.61637283 -31.74611145 5.4059787 -30.63134766 5.18920898 C-29.21337387 4.91632301 -29.21337387 4.91632301 -27.76675415 4.63792419 C-24.76493016 3.94580048 -21.91478803 2.99261743 -19 2 C-16.46753805 1.39741209 -13.92492696 0.83628259 -11.375 0.3125 C-10.08335938 0.04050781 -8.79171875 -0.23148438 -7.4609375 -0.51171875 C-4.31331149 -0.95579691 -2.92156823 -0.86895261 0 0 Z " fill="#000A6C" transform="translate(1686,1588)"/>
<path d="M0 0 C8.66227419 7.52169005 14.13565267 17.77475447 15.203125 29.16796875 C15.45625282 40.07355898 12.05403849 48.73266689 5 57 C-3.2514243 65.61448697 -12.40823531 69.72772577 -24.328125 70.10546875 C-35.20399497 69.78206733 -44.5315708 66.09451554 -52.54296875 58.62890625 C-60.38639788 49.86024688 -63.35226232 39.62528428 -63.2109375 28.05078125 C-62.90409486 23.61292753 -61.82187799 20.03711599 -60 16 C-59.5978125 15.09121094 -59.195625 14.18242188 -58.78125 13.24609375 C-54.01966304 3.52452037 -47.38186037 -1.65003027 -37.2734375 -5.2890625 C-24.87269743 -9.16695716 -10.80265069 -7.22537948 0 0 Z " fill="#000A6B" transform="translate(1670,1497)"/>
<path d="M0 0 C0.66 0.33 1.32 0.66 2 1 C-1.96 4.96 -5.92 8.92 -10 13 C-10.66 12.67 -11.32 12.34 -12 12 C-8.27653164 7.57905197 -4.70478962 3.42166518 0 0 Z " fill="#000354" transform="translate(1110,1614)"/>
</svg>
